HIERARCHY
ROOT joint_Root
{
	OFFSET 0.0 0.0 0.0
	CHANNELS 6 Xposition Yposition Zposition Zrotation Xrotation Yrotation 
	JOINT Hips
	{
		OFFSET -0.726466 93.3139 -2.00062
		CHANNELS 6 Xposition Yposition Zposition Zrotation Xrotation Yrotation 
		JOINT Spine
		{
			OFFSET 15.7357 0.0 0.0
			CHANNELS 6 Xposition Yposition Zposition Zrotation Xrotation Yrotation 
			JOINT Chest
			{
				OFFSET 8.98455 -0.406207 0.0
				CHANNELS 6 Xposition Yposition Zposition Zrotation Xrotation Yrotation 
				JOINT Neck
				{
					OFFSET 16.3773 0.0 0.0
					CHANNELS 6 Xposition Yposition Zposition Zrotation Xrotation Yrotation 
					JOINT Head
					{
						OFFSET 6.45672 0.0 0.0
						CHANNELS 6 Xposition Yposition Zposition Zrotation Xrotation Yrotation 
						End Site
						{
							OFFSET 0.0 0.0 0.0
						}
					}
				}
				JOINT Shoulder_L
				{
					OFFSET 12.9942 -0.242716 4.98039
					CHANNELS 6 Xposition Yposition Zposition Zrotation Xrotation Yrotation 
					JOINT UpperArm_L
					{
						OFFSET 5.34809 0.0 0.0
						CHANNELS 6 Xposition Yposition Zposition Zrotation Xrotation Yrotation 
						JOINT LowerArm_L
						{
							OFFSET 24.3286 1.87007e-05 0.0
							CHANNELS 6 Xposition Yposition Zposition Zrotation Xrotation Yrotation 
							JOINT Hand_L
							{
								OFFSET 22.2916 0.0 0.0
								CHANNELS 6 Xposition Yposition Zposition Zrotation Xrotation Yrotation 
								End Site
								{
									OFFSET 0.0 0.0 0.0
								}
							}
						}
					}
				}
				JOINT Shoulder_R
				{
					OFFSET 12.9945 -0.242716 -4.98039
					CHANNELS 6 Xposition Yposition Zposition Zrotation Xrotation Yrotation 
					JOINT UpperArm_R
					{
						OFFSET -5.34813 0.0 0.0
						CHANNELS 6 Xposition Yposition Zposition Zrotation Xrotation Yrotation 
						JOINT LowerArm_R
						{
							OFFSET -24.3289 0.000322201 0.0
							CHANNELS 6 Xposition Yposition Zposition Zrotation Xrotation Yrotation 
							JOINT Hand_R
							{
								OFFSET -22.2915 -0.000108084 0.0
								CHANNELS 6 Xposition Yposition Zposition Zrotation Xrotation Yrotation 
								End Site
								{
									OFFSET 0.0 0.0 0.0
								}
							}
						}
					}
				}
			}
		}
		JOINT UpperLeg_L
		{
			OFFSET -2.19248 -6.46944 0.0
			CHANNELS 6 Xposition Yposition Zposition Zrotation Xrotation Yrotation 
			JOINT LowerLeg_L
			{
				OFFSET 39.0811 0.0 -1.23785e-05
				CHANNELS 6 Xposition Yposition Zposition Zrotation Xrotation Yrotation 
				JOINT Foot_L
				{
					OFFSET 40.9854 0.0 -1.26872e-05
					CHANNELS 6 Xposition Yposition Zposition Zrotation Xrotation Yrotation 
					JOINT Toes_L
					{
						OFFSET 11.7543 0.0 0.0
						CHANNELS 6 Xposition Yposition Zposition Zrotation Xrotation Yrotation 
						End Site
						{
							OFFSET 0.0 0.0 0.0
						}
					}
				}
			}
		}
		JOINT UpperLeg_R
		{
			OFFSET -2.19251 6.46944 0.0
			CHANNELS 6 Xposition Yposition Zposition Zrotation Xrotation Yrotation 
			JOINT LowerLeg_R
			{
				OFFSET -39.0811 -0.00228153 -0.0401928
				CHANNELS 6 Xposition Yposition Zposition Zrotation Xrotation Yrotation 
				JOINT Foot_R
				{
					OFFSET -40.9854 0.0 0.0
					CHANNELS 6 Xposition Yposition Zposition Zrotation Xrotation Yrotation 
					JOINT Toes_R
					{
						OFFSET -11.7543 0.0 0.0
						CHANNELS 6 Xposition Yposition Zposition Zrotation Xrotation Yrotation 
						End Site
						{
							OFFSET 0.0 0.0 0.0
						}
					}
				}
			}
		}
	}
}
MOTION
Frames:	8
Frame Time:	0.0333333
0.000000 0.000000 0.000000 0.000000 0.000000 -0.000000 1.077410 92.020900 -1.657230 88.085900 -3.538990 6.691400 15.735700 0.000005 -0.000001 88.773900 84.586500 -91.696200 8.984550 -0.406207 -0.000000 3.062290 -0.111668 -5.835470 16.377300 -0.000001 -0.000001 -0.335489 -0.924187 1.762810 6.456720 -0.000001 -0.000000 -2.574320 0.832131 -3.831520 12.994200 -0.242716 4.980390 -88.327100 -4.949770 -71.299200 5.348090 -0.000007 -0.000001 -9.260560 77.626800 -37.505500 24.328600 0.000019 0.000005 14.388100 -0.471304 -91.836600 22.291600 -0.000001 0.000005 33.930300 5.620960 -29.554700 12.994500 -0.242716 -4.980390 92.591700 -5.946390 -66.398200 -5.348130 -0.000001 -0.000004 -57.797100 -55.733500 -90.558800 -24.328900 0.000322 -0.000009 0.707702 2.627490 -15.109200 -22.291500 -0.000108 -0.000004 12.985800 5.213520 2.377190 -2.192480 -6.469440 -0.000000 -170.316000 -19.547400 -2.507740 39.081100 -0.000007 -0.000012 -0.165498 0.358216 24.797400 40.985400 -0.000006 -0.000013 -4.854980 -2.959430 -63.613300 11.754300 -0.000000 0.000003 -0.000161 -0.001546 -16.636200 -2.192510 6.469440 -0.000001 172.203000 20.748800 179.396000 -39.081100 -0.002282 -0.040193 0.028190 -0.063783 21.302700 -40.985400 0.000008 0.000006 -1.719020 4.920900 -61.221200 -11.754300 -0.000006 -0.000006 -0.003472 -0.045835 -18.437300
0.000000 0.000000 0.000000 0.000000 0.000000 -0.000000 1.107170 92.017800 -1.629160 88.094500 -3.858080 6.686590 15.735700 0.000005 -0.000001 88.607200 84.635600 -91.376300 8.984550 -0.406207 -0.000000 2.962140 -0.144592 -5.528610 16.377300 -0.000001 -0.000001 -0.079018 -1.104500 1.984100 6.456720 -0.000001 -0.000000 -2.335330 0.624530 -3.744440 12.994200 -0.242716 4.980390 -88.340800 -4.922860 -71.347900 5.348090 -0.000007 -0.000001 -6.963010 77.691200 -39.746200 24.328600 0.000019 0.000005 14.387600 -0.467509 -91.821900 22.291600 -0.000001 0.000005 33.975100 5.624050 -29.337600 12.994500 -0.242716 -4.980390 92.754900 -6.280010 -66.255600 -5.348130 -0.000001 -0.000004 -57.254100 -55.904200 -93.312900 -24.328900 0.000322 -0.000009 0.474527 1.424230 -18.475400 -22.291500 -0.000108 -0.000004 13.465300 5.258270 1.215590 -2.192480 -6.469440 -0.000000 -170.292000 -19.779100 -2.419520 39.081100 -0.000007 -0.000012 -0.165205 0.357428 24.806900 40.985400 -0.000006 -0.000013 -4.864070 -3.015830 -63.674500 11.754300 -0.000000 0.000003 -0.000157 -0.001508 -16.634800 -2.192510 6.469440 -0.000001 172.240000 20.416600 179.357000 -39.081100 -0.002282 -0.040193 0.029802 -0.068019 21.273000 -40.985400 0.000008 0.000006 -1.642730 4.889520 -61.263600 -11.754300 -0.000006 -0.000006 -0.003698 -0.048261 -18.536100
0.000000 0.000000 0.000000 0.000000 0.000000 -0.000000 1.113850 92.021200 -1.583140 88.082200 -4.138230 6.722610 15.735700 0.000005 -0.000001 88.496300 84.664400 -91.098700 8.984550 -0.406207 -0.000000 2.902980 -0.169456 -5.195030 16.377300 -0.000001 -0.000001 0.196803 -1.298890 2.165660 6.456720 -0.000001 -0.000000 -2.223610 0.383302 -3.562780 12.994200 -0.242716 4.980390 -88.346600 -4.927710 -71.425300 5.348090 -0.000007 -0.000001 -4.790030 77.734300 -41.979100 24.328600 0.000019 0.000005 14.103900 -0.423614 -91.685600 22.291600 -0.000001 0.000005 33.943800 5.622620 -29.439100 12.994500 -0.242716 -4.980390 92.941300 -6.624340 -65.991700 -5.348130 -0.000001 -0.000004 -58.059800 -55.956400 -98.015800 -24.328900 0.000322 -0.000009 0.435885 1.065230 -22.308000 -22.291500 -0.000108 -0.000004 14.439100 5.292810 0.275678 -2.192480 -6.469440 -0.000000 -170.206000 -19.986500 -2.243440 39.081100 -0.000007 -0.000012 -0.166786 0.361580 24.762600 40.985400 -0.000006 -0.000013 -4.898960 -3.069690 -63.718800 11.754300 -0.000000 0.000003 -0.000144 -0.001401 -16.630900 -2.192510 6.469440 -0.000001 172.288000 20.094200 179.374000 -39.081100 -0.002282 -0.040193 0.028989 -0.066036 21.242100 -40.985400 0.000008 0.000006 -1.693930 4.842040 -61.232100 -11.754300 -0.000006 -0.000006 -0.003554 -0.046719 -18.473300
0.000000 0.000000 0.000000 0.000000 0.000000 -0.000000 1.091530 92.011000 -1.529270 88.049600 -4.431580 6.802980 15.735700 0.000005 -0.000001 88.506000 84.688100 -90.927400 8.984550 -0.406207 -0.000000 2.855140 -0.173075 -4.833440 16.377300 -0.000001 -0.000001 0.488365 -1.548700 2.446080 6.456720 -0.000001 -0.000000 -2.151110 0.231861 -3.585670 12.994200 -0.242716 4.980390 -88.370000 -4.901090 -71.578100 5.348090 -0.000007 -0.000001 -4.217190 77.868400 -42.645900 24.328600 0.000019 0.000005 13.863500 -0.375898 -91.522700 22.291600 -0.000001 0.000005 34.139000 5.622810 -29.426300 12.994500 -0.242716 -4.980390 93.132600 -6.935120 -65.617400 -5.348130 -0.000001 -0.000004 -60.009100 -55.537000 -104.333000 -24.328900 0.000322 -0.000009 0.517983 1.053250 -26.239200 -22.291500 -0.000108 -0.000004 15.413600 5.320860 -0.519268 -2.192480 -6.469440 -0.000000 -170.045000 -20.231800 -2.047310 39.081100 -0.000007 -0.000012 -0.170131 0.368176 24.801500 40.985400 -0.000006 -0.000013 -4.947890 -3.056690 -63.799700 11.754300 -0.000000 0.000003 -0.000166 -0.001584 -16.637600 -2.192510 6.469440 -0.000001 172.368000 19.696100 179.435000 -39.081100 -0.002282 -0.040193 0.029588 -0.067506 21.262800 -40.985400 0.000008 0.000006 -1.686840 4.719960 -61.310900 -11.754300 -0.000006 -0.000006 -0.003663 -0.047888 -18.520900
0.000000 0.000000 0.000000 0.000000 0.000000 -0.000000 1.048310 92.009000 -1.469880 88.031200 -4.750520 6.862540 15.735700 0.000005 -0.000001 88.810600 84.708300 -91.067400 8.984550 -0.406207 -0.000000 2.816680 -0.122104 -4.505740 16.377300 -0.000001 -0.000001 0.696882 -1.800620 2.753530 6.456720 -0.000001 -0.000000 -2.050330 0.095658 -3.629490 12.994200 -0.242716 4.980390 -88.391000 -4.861400 -71.661100 5.348090 -0.000007 -0.000001 -3.763990 77.959200 -43.181100 24.328600 0.000019 0.000005 13.500400 -0.346440 -91.442700 22.291600 -0.000001 0.000005 34.065800 5.626610 -29.155300 12.994500 -0.242716 -4.980390 93.339300 -7.279040 -65.273400 -5.348130 -0.000001 -0.000004 -62.071800 -54.838100 -110.870000 -24.328900 0.000322 -0.000009 0.561207 0.953823 -30.525400 -22.291500 -0.000108 -0.000004 16.259700 5.351190 -1.410940 -2.192480 -6.469440 -0.000000 -169.920000 -20.441200 -1.844840 39.081100 -0.000007 -0.000012 -0.169509 0.367191 24.780100 40.985400 -0.000006 -0.000013 -5.016650 -3.160440 -63.855700 11.754300 -0.000000 0.000003 -0.000158 -0.001515 -16.635100 -2.192510 6.469440 -0.000001 172.435000 19.396500 179.466000 -39.081100 -0.002282 -0.040193 0.029322 -0.066734 21.288500 -40.985400 0.000008 0.000006 -1.701530 4.728260 -61.337500 -11.754300 -0.000006 -0.000006 -0.003685 -0.048121 -18.530400
0.000000 0.000000 0.000000 0.000000 0.000000 -0.000000 0.968509 92.006400 -1.422590 87.983400 -5.027180 6.929730 15.735700 0.000005 -0.000001 89.182000 84.718100 -91.294800 8.984550 -0.406207 -0.000000 2.799160 -0.059185 -4.219640 16.377300 -0.000001 -0.000001 0.818083 -2.040130 3.051160 6.456720 -0.000001 -0.000000 -1.908250 0.013470 -3.604760 12.994200 -0.242716 4.980390 -88.381600 -4.931110 -71.804200 5.348090 -0.000007 -0.000001 -4.128350 78.119700 -42.961900 24.328600 0.000019 0.000005 13.035500 -0.323854 -91.398600 22.291600 -0.000001 0.000005 33.950800 5.628590 -29.010200 12.994500 -0.242716 -4.980390 93.520200 -7.540730 -64.884600 -5.348130 -0.000001 -0.000004 -63.010000 -54.048900 -116.569000 -24.328900 0.000322 -0.000009 0.813044 1.166170 -34.918400 -22.291500 -0.000108 -0.000004 17.122500 5.383940 -2.421270 -2.192480 -6.469440 -0.000000 -169.740000 -20.517100 -1.648960 39.081100 -0.000007 -0.000012 -0.173573 0.376475 24.752300 40.985400 -0.000006 -0.000013 -5.133550 -3.302890 -63.893100 11.754300 -0.000000 0.000003 -0.000164 -0.001563 -16.636800 -2.192510 6.469440 -0.000001 172.553000 19.126400 179.500000 -39.081100 -0.002282 -0.040193 0.029107 -0.066056 21.325700 -40.985400 0.000008 0.000006 -1.600980 4.736060 -61.396500 -11.754300 -0.000006 -0.000006 -0.003528 -0.046437 -18.461800
0.000000 0.000000 0.000000 0.000000 0.000000 -0.000000 0.880803 91.995600 -1.390370 87.923700 -5.275140 6.975870 15.735700 0.000005 -0.000001 89.641900 84.717000 -91.606100 8.984550 -0.406207 -0.000000 2.803040 0.019023 -3.924690 16.377300 -0.000001 -0.000001 0.873007 -2.286740 3.313600 6.456720 -0.000001 -0.000000 -1.746510 -0.079730 -3.782290 12.994200 -0.242716 4.980390 -88.379900 -4.982850 -71.963200 5.348090 -0.000007 -0.000001 -4.858840 78.266100 -42.439200 24.328600 0.000019 0.000005 12.858200 -0.297772 -91.304300 22.291600 -0.000001 0.000005 34.071900 5.631060 -28.824900 12.994500 -0.242716 -4.980390 93.710600 -7.836100 -64.560900 -5.348130 -0.000001 -0.000004 -63.270200 -53.377400 -121.612000 -24.328900 0.000322 -0.000009 0.685119 0.842776 -39.169700 -22.291500 -0.000108 -0.000004 17.391900 5.426220 -3.810560 -2.192480 -6.469440 -0.000000 -169.549000 -20.643900 -1.519260 39.081100 -0.000007 -0.000012 -0.175423 0.379767 24.793500 40.985400 -0.000006 -0.000013 -5.232750 -3.364690 -63.947200 11.754300 -0.000000 0.000003 -0.000147 -0.001427 -16.631800 -2.192510 6.469440 -0.000001 172.660000 19.063100 179.522000 -39.081100 -0.002282 -0.040193 0.030020 -0.068196 21.382600 -40.985400 0.000008 0.000006 -1.457640 4.914170 -61.503100 -11.754300 -0.000006 -0.000006 -0.003587 -0.047075 -18.487800
0.000000 0.000000 0.000000 0.000000 0.000000 -0.000000 0.771146 91.988300 -1.351360 87.821600 -5.484830 7.056650 15.735700 0.000005 -0.000001 90.265000 84.691700 -92.094000 8.984550 -0.406207 -0.000000 2.855100 0.127377 -3.657460 16.377300 -0.000001 -0.000001 0.858526 -2.554960 3.509150 6.456720 -0.000001 -0.000000 -1.630010 -0.139531 -3.925360 12.994200 -0.242716 4.980390 -88.375200 -5.031360 -72.077100 5.348090 -0.000007 -0.000001 -5.366530 78.304600 -42.061300 24.328600 0.000019 0.000005 12.854200 -0.297844 -91.305100 22.291600 -0.000001 0.000005 33.853200 5.634310 -28.575300 12.994500 -0.242716 -4.980390 93.891500 -8.087730 -64.195600 -5.348130 -0.000001 -0.000004 -63.849100 -52.142700 -126.519000 -24.328900 0.000322 -0.000009 0.950193 1.009900 -43.283800 -22.291500 -0.000108 -0.000004 17.120400 5.453250 -4.758500 -2.192480 -6.469440 -0.000000 -169.272000 -20.744600 -1.332790 39.081100 -0.000007 -0.000012 -0.180185 0.389671 24.816200 40.985400 -0.000006 -0.000013 -5.345300 -3.370290 -63.991200 11.754300 -0.000000 0.000003 -0.000146 -0.001417 -16.631500 -2.192510 6.469440 -0.000001 172.778000 19.082900 179.624000 -39.081100 -0.002282 -0.040193 0.028149 -0.063381 21.393400 -40.985400 0.000008 0.000006 -1.483950 5.122130 -61.524100 -11.754300 -0.000006 -0.000006 -0.003492 -0.046047 -18.446000
